<mxfile host="app.diagrams.net" agent="Mozilla/5.0 (X11; Linux x86_64) AppleWebKit/537.36 (KHTML, like Gecko) Chrome/128.0.0.0 Safari/537.36 OPR/114.0.0.0" version="26.0.15">
  <diagram id="C5RBs43oDa-KdzZeNtuy" name="Page-1">
    <mxGraphModel dx="1624" dy="929" grid="1" gridSize="10" guides="1" tooltips="1" connect="1" arrows="1" fold="1" page="1" pageScale="1" pageWidth="827" pageHeight="1169" math="0" shadow="0">
      <root>
        <mxCell id="WIyWlLk6GJQsqaUBKTNV-0" />
        <mxCell id="WIyWlLk6GJQsqaUBKTNV-1" parent="WIyWlLk6GJQsqaUBKTNV-0" />
        <mxCell id="BnCr40TSd7fpDwWJQl5j-0" style="rounded=0;orthogonalLoop=1;jettySize=auto;html=1;exitX=0.5;exitY=0;exitDx=0;exitDy=0;endArrow=none;startFill=0;" parent="WIyWlLk6GJQsqaUBKTNV-1" source="BnCr40TSd7fpDwWJQl5j-44" target="BnCr40TSd7fpDwWJQl5j-41" edge="1">
          <mxGeometry relative="1" as="geometry" />
        </mxCell>
        <mxCell id="BnCr40TSd7fpDwWJQl5j-1" style="edgeStyle=none;shape=connector;rounded=0;orthogonalLoop=1;jettySize=auto;html=1;exitX=1;exitY=0.3333333333333333;exitDx=0;exitDy=0;exitPerimeter=0;entryX=0;entryY=0.5;entryDx=0;entryDy=0;strokeColor=default;align=center;verticalAlign=middle;fontFamily=Helvetica;fontSize=11;fontColor=default;labelBackgroundColor=default;startArrow=none;startFill=0;endArrow=none;endFill=0;" parent="WIyWlLk6GJQsqaUBKTNV-1" target="BnCr40TSd7fpDwWJQl5j-11" edge="1">
          <mxGeometry relative="1" as="geometry">
            <mxPoint x="620" y="775" as="sourcePoint" />
          </mxGeometry>
        </mxCell>
        <mxCell id="BnCr40TSd7fpDwWJQl5j-2" style="edgeStyle=none;shape=connector;rounded=0;orthogonalLoop=1;jettySize=auto;html=1;exitX=1;exitY=0.3333333333333333;exitDx=0;exitDy=0;exitPerimeter=0;entryX=0;entryY=0.5;entryDx=0;entryDy=0;strokeColor=default;align=center;verticalAlign=middle;fontFamily=Helvetica;fontSize=11;fontColor=default;labelBackgroundColor=default;startArrow=none;startFill=0;endArrow=none;endFill=0;" parent="WIyWlLk6GJQsqaUBKTNV-1" target="BnCr40TSd7fpDwWJQl5j-13" edge="1">
          <mxGeometry relative="1" as="geometry">
            <mxPoint x="620" y="775" as="sourcePoint" />
          </mxGeometry>
        </mxCell>
        <mxCell id="BnCr40TSd7fpDwWJQl5j-3" value="Visitante" style="shape=umlActor;verticalLabelPosition=bottom;verticalAlign=top;html=1;outlineConnect=0;fillColor=#e1d5e7;strokeColor=#9673a6;" parent="WIyWlLk6GJQsqaUBKTNV-1" vertex="1">
          <mxGeometry x="1250" y="570" width="30" height="60" as="geometry" />
        </mxCell>
        <mxCell id="BnCr40TSd7fpDwWJQl5j-4" style="rounded=0;orthogonalLoop=1;jettySize=auto;html=1;exitX=0;exitY=0.3333333333333333;exitDx=0;exitDy=0;exitPerimeter=0;entryX=1;entryY=0.5;entryDx=0;entryDy=0;startArrow=none;startFill=0;endArrow=none;endFill=0;" parent="WIyWlLk6GJQsqaUBKTNV-1" source="BnCr40TSd7fpDwWJQl5j-5" target="BnCr40TSd7fpDwWJQl5j-8" edge="1">
          <mxGeometry relative="1" as="geometry" />
        </mxCell>
        <mxCell id="BnCr40TSd7fpDwWJQl5j-5" value="Aluno" style="shape=umlActor;verticalLabelPosition=bottom;verticalAlign=top;html=1;outlineConnect=0;fillColor=light-dark(#ffadad, #ff7777);strokeColor=#b85450;" parent="WIyWlLk6GJQsqaUBKTNV-1" vertex="1">
          <mxGeometry x="1250" y="750" width="30" height="60" as="geometry" />
        </mxCell>
        <mxCell id="BnCr40TSd7fpDwWJQl5j-6" style="edgeStyle=none;shape=connector;rounded=0;orthogonalLoop=1;jettySize=auto;html=1;exitX=1;exitY=0.5;exitDx=0;exitDy=0;strokeColor=default;align=center;verticalAlign=middle;fontFamily=Helvetica;fontSize=11;fontColor=default;labelBackgroundColor=default;startArrow=none;startFill=0;endArrow=none;endFill=0;" parent="WIyWlLk6GJQsqaUBKTNV-1" source="BnCr40TSd7fpDwWJQl5j-7" target="BnCr40TSd7fpDwWJQl5j-3" edge="1">
          <mxGeometry relative="1" as="geometry" />
        </mxCell>
        <mxCell id="BnCr40TSd7fpDwWJQl5j-7" value="entrar na conta" style="ellipse;whiteSpace=wrap;html=1;fillColor=#e1d5e7;strokeColor=#9673a6;" parent="WIyWlLk6GJQsqaUBKTNV-1" vertex="1">
          <mxGeometry x="990" y="570" width="100" height="60" as="geometry" />
        </mxCell>
        <mxCell id="BnCr40TSd7fpDwWJQl5j-8" value="visualizar e alterar dados da conta" style="ellipse;whiteSpace=wrap;html=1;fillColor=light-dark(#ffadad, #ff7777);strokeColor=#b85450;" parent="WIyWlLk6GJQsqaUBKTNV-1" vertex="1">
          <mxGeometry x="980" y="720" width="120" height="50" as="geometry" />
        </mxCell>
        <mxCell id="BnCr40TSd7fpDwWJQl5j-9" style="edgeStyle=none;shape=connector;rounded=0;orthogonalLoop=1;jettySize=auto;html=1;exitX=1;exitY=0.5;exitDx=0;exitDy=0;strokeColor=default;align=center;verticalAlign=middle;fontFamily=Helvetica;fontSize=11;fontColor=default;labelBackgroundColor=default;startArrow=none;startFill=0;endArrow=none;endFill=0;" parent="WIyWlLk6GJQsqaUBKTNV-1" source="BnCr40TSd7fpDwWJQl5j-10" target="BnCr40TSd7fpDwWJQl5j-5" edge="1">
          <mxGeometry relative="1" as="geometry" />
        </mxCell>
        <mxCell id="BnCr40TSd7fpDwWJQl5j-10" value="visualizar ficha de treino" style="ellipse;whiteSpace=wrap;html=1;fillColor=light-dark(#ffadad, #ff7777);strokeColor=#b85450;" parent="WIyWlLk6GJQsqaUBKTNV-1" vertex="1">
          <mxGeometry x="980" y="840" width="120" height="50" as="geometry" />
        </mxCell>
        <mxCell id="BnCr40TSd7fpDwWJQl5j-11" value="cadastrar aluno" style="ellipse;whiteSpace=wrap;html=1;fillColor=#dae8fc;strokeColor=#6c8ebf;" parent="WIyWlLk6GJQsqaUBKTNV-1" vertex="1">
          <mxGeometry x="730" y="590" width="130" height="80" as="geometry" />
        </mxCell>
        <mxCell id="BnCr40TSd7fpDwWJQl5j-12" value="matricular o aluno" style="ellipse;whiteSpace=wrap;html=1;fillColor=#dae8fc;strokeColor=#6c8ebf;" parent="WIyWlLk6GJQsqaUBKTNV-1" vertex="1">
          <mxGeometry x="730" y="755" width="140" height="70" as="geometry" />
        </mxCell>
        <mxCell id="BnCr40TSd7fpDwWJQl5j-13" value="visualizar e editar dados dos alunos" style="ellipse;whiteSpace=wrap;html=1;fillColor=#dae8fc;strokeColor=#6c8ebf;" parent="WIyWlLk6GJQsqaUBKTNV-1" vertex="1">
          <mxGeometry x="730" y="680" width="140" height="70" as="geometry" />
        </mxCell>
        <mxCell id="BnCr40TSd7fpDwWJQl5j-14" style="edgeStyle=none;shape=connector;rounded=0;orthogonalLoop=1;jettySize=auto;html=1;exitX=0;exitY=0.5;exitDx=0;exitDy=0;strokeColor=default;align=center;verticalAlign=middle;fontFamily=Helvetica;fontSize=11;fontColor=default;labelBackgroundColor=default;startArrow=none;startFill=0;endArrow=none;endFill=0;" parent="WIyWlLk6GJQsqaUBKTNV-1" source="BnCr40TSd7fpDwWJQl5j-15" edge="1">
          <mxGeometry relative="1" as="geometry">
            <mxPoint x="620" y="780" as="targetPoint" />
          </mxGeometry>
        </mxCell>
        <mxCell id="BnCr40TSd7fpDwWJQl5j-15" value="criar, editar, visualizar treinos dos alunos" style="ellipse;whiteSpace=wrap;html=1;fillColor=#dae8fc;strokeColor=#6c8ebf;" parent="WIyWlLk6GJQsqaUBKTNV-1" vertex="1">
          <mxGeometry x="730" y="910" width="140" height="80" as="geometry" />
        </mxCell>
        <mxCell id="BnCr40TSd7fpDwWJQl5j-16" value="visualizar e editar as matriculas" style="ellipse;whiteSpace=wrap;html=1;fillColor=#dae8fc;strokeColor=#6c8ebf;" parent="WIyWlLk6GJQsqaUBKTNV-1" vertex="1">
          <mxGeometry x="735" y="830" width="130" height="70" as="geometry" />
        </mxCell>
        <mxCell id="BnCr40TSd7fpDwWJQl5j-17" value="vizualizar medidas" style="ellipse;whiteSpace=wrap;html=1;fillColor=light-dark(#ffadad, #ff7777);strokeColor=#b85450;" parent="WIyWlLk6GJQsqaUBKTNV-1" vertex="1">
          <mxGeometry x="980" y="780" width="120" height="50" as="geometry" />
        </mxCell>
        <mxCell id="BnCr40TSd7fpDwWJQl5j-18" style="edgeStyle=none;shape=connector;rounded=0;orthogonalLoop=1;jettySize=auto;html=1;exitX=1;exitY=0.5;exitDx=0;exitDy=0;strokeColor=default;align=center;verticalAlign=middle;fontFamily=Helvetica;fontSize=11;fontColor=default;labelBackgroundColor=default;startArrow=none;startFill=0;endArrow=none;endFill=0;" parent="WIyWlLk6GJQsqaUBKTNV-1" source="BnCr40TSd7fpDwWJQl5j-17" edge="1">
          <mxGeometry relative="1" as="geometry">
            <mxPoint x="1250" y="780" as="targetPoint" />
          </mxGeometry>
        </mxCell>
        <mxCell id="BnCr40TSd7fpDwWJQl5j-19" style="edgeStyle=none;shape=connector;rounded=0;orthogonalLoop=1;jettySize=auto;html=1;exitX=1;exitY=0.5;exitDx=0;exitDy=0;strokeColor=default;align=center;verticalAlign=middle;fontFamily=Helvetica;fontSize=11;fontColor=default;labelBackgroundColor=default;startArrow=none;startFill=0;endArrow=none;endFill=0;" parent="WIyWlLk6GJQsqaUBKTNV-1" source="BnCr40TSd7fpDwWJQl5j-20" target="BnCr40TSd7fpDwWJQl5j-5" edge="1">
          <mxGeometry relative="1" as="geometry" />
        </mxCell>
        <mxCell id="BnCr40TSd7fpDwWJQl5j-20" value="visualizar e pagar mensalidade" style="ellipse;whiteSpace=wrap;html=1;fillColor=light-dark(#ffadad, #ff7777);strokeColor=#b85450;" parent="WIyWlLk6GJQsqaUBKTNV-1" vertex="1">
          <mxGeometry x="980" y="900" width="120" height="50" as="geometry" />
        </mxCell>
        <mxCell id="BbILCWoNtjiqPYjzGGdG-3" style="rounded=0;orthogonalLoop=1;jettySize=auto;html=1;exitX=0;exitY=0;exitDx=0;exitDy=0;entryX=1;entryY=0.75;entryDx=0;entryDy=0;endArrow=none;startFill=0;" edge="1" parent="WIyWlLk6GJQsqaUBKTNV-1" source="BnCr40TSd7fpDwWJQl5j-22" target="BnCr40TSd7fpDwWJQl5j-40">
          <mxGeometry relative="1" as="geometry" />
        </mxCell>
        <mxCell id="BnCr40TSd7fpDwWJQl5j-22" value="criar, editar, visualizar medições dos alunos" style="ellipse;whiteSpace=wrap;html=1;fillColor=#dae8fc;strokeColor=#6c8ebf;" parent="WIyWlLk6GJQsqaUBKTNV-1" vertex="1">
          <mxGeometry x="670" y="1000" width="130" height="70" as="geometry" />
        </mxCell>
        <mxCell id="BnCr40TSd7fpDwWJQl5j-23" value="visualizar matricula" style="ellipse;whiteSpace=wrap;html=1;fillColor=light-dark(#ffadad, #ff7777);strokeColor=#b85450;" parent="WIyWlLk6GJQsqaUBKTNV-1" vertex="1">
          <mxGeometry x="980" y="960" width="120" height="50" as="geometry" />
        </mxCell>
        <mxCell id="BnCr40TSd7fpDwWJQl5j-24" style="edgeStyle=none;shape=connector;rounded=0;orthogonalLoop=1;jettySize=auto;html=1;exitX=1;exitY=0.5;exitDx=0;exitDy=0;entryX=0;entryY=1;entryDx=0;entryDy=0;entryPerimeter=0;strokeColor=default;align=center;verticalAlign=middle;fontFamily=Helvetica;fontSize=11;fontColor=default;labelBackgroundColor=default;startArrow=none;startFill=0;endArrow=none;endFill=0;" parent="WIyWlLk6GJQsqaUBKTNV-1" source="BnCr40TSd7fpDwWJQl5j-23" target="BnCr40TSd7fpDwWJQl5j-5" edge="1">
          <mxGeometry relative="1" as="geometry" />
        </mxCell>
        <mxCell id="BnCr40TSd7fpDwWJQl5j-25" style="edgeStyle=none;shape=connector;rounded=0;orthogonalLoop=1;jettySize=auto;html=1;exitX=0;exitY=0.5;exitDx=0;exitDy=0;entryX=1;entryY=0.3333333333333333;entryDx=0;entryDy=0;entryPerimeter=0;strokeColor=default;align=center;verticalAlign=middle;fontFamily=Helvetica;fontSize=11;fontColor=default;labelBackgroundColor=default;startArrow=none;startFill=0;endArrow=none;endFill=0;" parent="WIyWlLk6GJQsqaUBKTNV-1" source="BnCr40TSd7fpDwWJQl5j-12" edge="1">
          <mxGeometry relative="1" as="geometry">
            <mxPoint x="620" y="775" as="targetPoint" />
          </mxGeometry>
        </mxCell>
        <mxCell id="BnCr40TSd7fpDwWJQl5j-26" style="edgeStyle=none;shape=connector;rounded=0;orthogonalLoop=1;jettySize=auto;html=1;exitX=0;exitY=0.5;exitDx=0;exitDy=0;entryX=1;entryY=0.3333333333333333;entryDx=0;entryDy=0;entryPerimeter=0;strokeColor=default;align=center;verticalAlign=middle;fontFamily=Helvetica;fontSize=11;fontColor=default;labelBackgroundColor=default;startArrow=none;startFill=0;endArrow=none;endFill=0;" parent="WIyWlLk6GJQsqaUBKTNV-1" source="BnCr40TSd7fpDwWJQl5j-16" edge="1">
          <mxGeometry relative="1" as="geometry">
            <mxPoint x="620" y="775" as="targetPoint" />
          </mxGeometry>
        </mxCell>
        <mxCell id="BnCr40TSd7fpDwWJQl5j-27" style="rounded=0;orthogonalLoop=1;jettySize=auto;html=1;exitX=0.754;exitY=0.029;exitDx=0;exitDy=0;endArrow=none;startFill=0;exitPerimeter=0;" parent="WIyWlLk6GJQsqaUBKTNV-1" edge="1" source="BnCr40TSd7fpDwWJQl5j-28">
          <mxGeometry relative="1" as="geometry">
            <mxPoint x="589.9966666666666" y="815" as="targetPoint" />
            <mxPoint x="429.33" y="990" as="sourcePoint" />
          </mxGeometry>
        </mxCell>
        <mxCell id="BnCr40TSd7fpDwWJQl5j-28" value="criar planos de pagamentos" style="ellipse;whiteSpace=wrap;html=1;fillColor=#dae8fc;strokeColor=#6c8ebf;" parent="WIyWlLk6GJQsqaUBKTNV-1" vertex="1">
          <mxGeometry x="370" y="1000" width="130" height="70" as="geometry" />
        </mxCell>
        <mxCell id="BnCr40TSd7fpDwWJQl5j-29" style="edgeStyle=none;shape=connector;rounded=0;orthogonalLoop=1;jettySize=auto;html=1;exitX=1;exitY=0;exitDx=0;exitDy=0;strokeColor=default;align=center;verticalAlign=middle;fontFamily=Helvetica;fontSize=11;fontColor=default;labelBackgroundColor=default;startFill=0;endArrow=none;" parent="WIyWlLk6GJQsqaUBKTNV-1" source="BnCr40TSd7fpDwWJQl5j-30" edge="1">
          <mxGeometry relative="1" as="geometry">
            <mxPoint x="590" y="801.9606728213714" as="targetPoint" />
          </mxGeometry>
        </mxCell>
        <mxCell id="BnCr40TSd7fpDwWJQl5j-30" value="visualizar e editar planos de pagamento" style="ellipse;whiteSpace=wrap;html=1;fillColor=#dae8fc;strokeColor=#6c8ebf;" parent="WIyWlLk6GJQsqaUBKTNV-1" vertex="1">
          <mxGeometry x="360" y="830" width="130" height="70" as="geometry" />
        </mxCell>
        <mxCell id="BnCr40TSd7fpDwWJQl5j-31" value="registrar pagamento do aluno" style="ellipse;whiteSpace=wrap;html=1;fillColor=#dae8fc;strokeColor=#6c8ebf;" parent="WIyWlLk6GJQsqaUBKTNV-1" vertex="1">
          <mxGeometry x="550" y="590" width="130" height="70" as="geometry" />
        </mxCell>
        <mxCell id="BnCr40TSd7fpDwWJQl5j-33" value="renovar a matricula do aluno" style="ellipse;whiteSpace=wrap;html=1;fillColor=#dae8fc;strokeColor=#6c8ebf;" parent="WIyWlLk6GJQsqaUBKTNV-1" vertex="1">
          <mxGeometry x="370" y="600" width="130" height="70" as="geometry" />
        </mxCell>
        <mxCell id="BnCr40TSd7fpDwWJQl5j-34" style="edgeStyle=none;shape=connector;rounded=0;orthogonalLoop=1;jettySize=auto;html=1;exitX=1;exitY=0.5;exitDx=0;exitDy=0;strokeColor=default;align=center;verticalAlign=middle;fontFamily=Helvetica;fontSize=11;fontColor=default;labelBackgroundColor=default;startFill=0;endArrow=none;" parent="WIyWlLk6GJQsqaUBKTNV-1" source="BnCr40TSd7fpDwWJQl5j-35" edge="1">
          <mxGeometry relative="1" as="geometry">
            <mxPoint x="590" y="779.2857142857142" as="targetPoint" />
          </mxGeometry>
        </mxCell>
        <mxCell id="BnCr40TSd7fpDwWJQl5j-35" value="criar nova medida" style="ellipse;whiteSpace=wrap;html=1;fillColor=#dae8fc;strokeColor=#6c8ebf;" parent="WIyWlLk6GJQsqaUBKTNV-1" vertex="1">
          <mxGeometry x="360" y="680" width="130" height="70" as="geometry" />
        </mxCell>
        <mxCell id="BnCr40TSd7fpDwWJQl5j-36" style="edgeStyle=none;shape=connector;rounded=0;orthogonalLoop=1;jettySize=auto;html=1;exitX=1;exitY=0.5;exitDx=0;exitDy=0;strokeColor=default;align=center;verticalAlign=middle;fontFamily=Helvetica;fontSize=11;fontColor=default;labelBackgroundColor=default;startFill=0;endArrow=none;" parent="WIyWlLk6GJQsqaUBKTNV-1" source="BnCr40TSd7fpDwWJQl5j-37" edge="1">
          <mxGeometry relative="1" as="geometry">
            <mxPoint x="590" y="793.4782608695652" as="targetPoint" />
          </mxGeometry>
        </mxCell>
        <mxCell id="BnCr40TSd7fpDwWJQl5j-37" value="criar novo grupo muscular" style="ellipse;whiteSpace=wrap;html=1;fillColor=#dae8fc;strokeColor=#6c8ebf;" parent="WIyWlLk6GJQsqaUBKTNV-1" vertex="1">
          <mxGeometry x="360" y="755" width="130" height="70" as="geometry" />
        </mxCell>
        <mxCell id="BnCr40TSd7fpDwWJQl5j-38" style="edgeStyle=none;shape=connector;rounded=0;orthogonalLoop=1;jettySize=auto;html=1;exitX=1;exitY=0.5;exitDx=0;exitDy=0;entryX=0.25;entryY=0.1;entryDx=0;entryDy=0;entryPerimeter=0;strokeColor=default;align=center;verticalAlign=middle;fontFamily=Helvetica;fontSize=11;fontColor=default;labelBackgroundColor=default;startFill=0;endArrow=none;" parent="WIyWlLk6GJQsqaUBKTNV-1" source="BnCr40TSd7fpDwWJQl5j-33" edge="1">
          <mxGeometry relative="1" as="geometry">
            <mxPoint x="597.5" y="761" as="targetPoint" />
          </mxGeometry>
        </mxCell>
        <mxCell id="BnCr40TSd7fpDwWJQl5j-39" style="edgeStyle=none;shape=connector;rounded=0;orthogonalLoop=1;jettySize=auto;html=1;exitX=0.5;exitY=1;exitDx=0;exitDy=0;entryX=0.75;entryY=0.1;entryDx=0;entryDy=0;entryPerimeter=0;strokeColor=default;align=center;verticalAlign=middle;fontFamily=Helvetica;fontSize=11;fontColor=default;labelBackgroundColor=default;startFill=0;endArrow=none;" parent="WIyWlLk6GJQsqaUBKTNV-1" source="BnCr40TSd7fpDwWJQl5j-31" edge="1">
          <mxGeometry relative="1" as="geometry">
            <mxPoint x="612.5" y="761" as="targetPoint" />
          </mxGeometry>
        </mxCell>
        <mxCell id="BnCr40TSd7fpDwWJQl5j-40" value="" style="whiteSpace=wrap;html=1;fontFamily=Helvetica;fontSize=11;fontColor=default;labelBackgroundColor=default;strokeColor=none;" parent="WIyWlLk6GJQsqaUBKTNV-1" vertex="1">
          <mxGeometry x="590" y="745" width="30" height="80" as="geometry" />
        </mxCell>
        <mxCell id="BnCr40TSd7fpDwWJQl5j-41" value="adm" style="shape=umlActor;verticalLabelPosition=bottom;verticalAlign=top;html=1;outlineConnect=0;fillColor=#dae8fc;strokeColor=#6c8ebf;" parent="WIyWlLk6GJQsqaUBKTNV-1" vertex="1">
          <mxGeometry x="590" y="745" width="30" height="60" as="geometry" />
        </mxCell>
        <mxCell id="BnCr40TSd7fpDwWJQl5j-44" value="cancelar matriculas do alunos" style="ellipse;whiteSpace=wrap;html=1;fillColor=#dae8fc;strokeColor=#6c8ebf;" parent="WIyWlLk6GJQsqaUBKTNV-1" vertex="1">
          <mxGeometry x="510" y="1010" width="130" height="70" as="geometry" />
        </mxCell>
        <mxCell id="BnCr40TSd7fpDwWJQl5j-45" value="" style="ellipse;whiteSpace=wrap;html=1;aspect=fixed;fillColor=#FF6666;strokeColor=#b85450;" parent="WIyWlLk6GJQsqaUBKTNV-1" vertex="1">
          <mxGeometry x="1300" y="950" width="30" height="30" as="geometry" />
        </mxCell>
        <mxCell id="BnCr40TSd7fpDwWJQl5j-46" value="" style="ellipse;whiteSpace=wrap;html=1;aspect=fixed;fillColor=#dae8fc;strokeColor=#6c8ebf;" parent="WIyWlLk6GJQsqaUBKTNV-1" vertex="1">
          <mxGeometry x="1300" y="990" width="30" height="30" as="geometry" />
        </mxCell>
        <mxCell id="BnCr40TSd7fpDwWJQl5j-47" value="" style="ellipse;whiteSpace=wrap;html=1;aspect=fixed;fillColor=#e1d5e7;strokeColor=#9673a6;" parent="WIyWlLk6GJQsqaUBKTNV-1" vertex="1">
          <mxGeometry x="1300" y="1040" width="30" height="30" as="geometry" />
        </mxCell>
        <mxCell id="BnCr40TSd7fpDwWJQl5j-48" value="JAVA" style="text;html=1;align=center;verticalAlign=middle;whiteSpace=wrap;rounded=0;fillColor=none;strokeColor=none;fontColor=#FF3333;" parent="WIyWlLk6GJQsqaUBKTNV-1" vertex="1">
          <mxGeometry x="1330" y="950" width="60" height="30" as="geometry" />
        </mxCell>
        <mxCell id="BnCr40TSd7fpDwWJQl5j-49" value="PYTHON" style="text;html=1;align=center;verticalAlign=middle;whiteSpace=wrap;rounded=0;fillColor=none;strokeColor=none;fontColor=#66B2FF;" parent="WIyWlLk6GJQsqaUBKTNV-1" vertex="1">
          <mxGeometry x="1340" y="990" width="60" height="30" as="geometry" />
        </mxCell>
        <mxCell id="BnCr40TSd7fpDwWJQl5j-50" value="PYTHON E&amp;nbsp;&lt;div&gt;JAVA&lt;/div&gt;" style="text;html=1;align=center;verticalAlign=middle;whiteSpace=wrap;rounded=0;fillColor=none;strokeColor=none;fontColor=#B266FF;" parent="WIyWlLk6GJQsqaUBKTNV-1" vertex="1">
          <mxGeometry x="1340" y="1040" width="60" height="30" as="geometry" />
        </mxCell>
        <mxCell id="BbILCWoNtjiqPYjzGGdG-2" style="rounded=0;orthogonalLoop=1;jettySize=auto;html=1;exitX=1;exitY=0;exitDx=0;exitDy=0;entryX=0;entryY=0.75;entryDx=0;entryDy=0;endArrow=none;startFill=0;" edge="1" parent="WIyWlLk6GJQsqaUBKTNV-1" source="BbILCWoNtjiqPYjzGGdG-1" target="BnCr40TSd7fpDwWJQl5j-40">
          <mxGeometry relative="1" as="geometry" />
        </mxCell>
        <mxCell id="BbILCWoNtjiqPYjzGGdG-1" value="criar, excluir, visualizar e editar fisologia" style="ellipse;whiteSpace=wrap;html=1;fillColor=#dae8fc;strokeColor=#6c8ebf;" vertex="1" parent="WIyWlLk6GJQsqaUBKTNV-1">
          <mxGeometry x="360" y="910" width="130" height="70" as="geometry" />
        </mxCell>
      </root>
    </mxGraphModel>
  </diagram>
</mxfile>
